<svg id="svg" version="1.1" width="400" height="310" xmlns="http://www.w3.org/2000/svg" xmlns:xlink="http://www.w3.org/1999/xlink" ><g id="svgg"><path id="path0" d="M194.878 4.468 C 192.636 5.295,159.830 27.114,158.569 28.616 C 158.465 28.740,156.685 29.964,154.614 31.336 C 152.542 32.708,150.254 34.251,149.529 34.765 C 148.804 35.278,143.041 39.228,136.723 43.543 C 130.405 47.857,125.066 51.524,124.859 51.692 C 124.652 51.860,121.685 53.888,118.267 56.198 C 114.849 58.509,111.996 60.539,111.927 60.708 C 111.858 60.878,111.663 61.017,111.493 61.017 C 111.323 61.017,107.820 63.329,103.709 66.154 C 99.597 68.980,94.369 72.565,92.090 74.121 C 80.454 82.069,78.516 83.405,78.343 83.596 C 78.239 83.711,75.273 85.741,71.751 88.108 C 68.230 90.475,65.264 92.526,65.160 92.665 C 65.056 92.805,64.802 92.987,64.595 93.070 C 64.388 93.153,62.978 94.058,61.462 95.082 L 58.706 96.943 58.872 136.890 C 59.046 178.623,59.056 178.891,60.850 189.720 C 64.116 209.433,72.223 229.838,82.887 245.186 C 84.813 247.957,88.543 253.070,89.467 254.205 C 96.213 262.489,103.569 269.842,112.283 277.011 C 130.477 291.981,157.872 303.587,181.544 306.354 C 182.476 306.463,184.934 306.753,187.006 306.998 C 191.201 307.495,206.645 307.627,210.734 307.202 C 221.437 306.089,224.327 305.639,231.827 303.920 C 236.846 302.769,244.779 300.505,246.857 299.629 C 247.498 299.359,249.718 298.499,251.789 297.719 C 264.061 293.094,280.416 283.419,290.053 275.084 C 296.196 269.770,302.550 263.575,306.026 259.506 C 311.975 252.546,314.516 249.205,318.440 243.186 C 320.003 240.791,321.281 238.755,321.281 238.663 C 321.281 238.571,321.986 237.334,322.849 235.914 C 325.041 232.307,328.888 224.233,331.257 218.267 C 331.832 216.817,332.518 215.122,332.780 214.501 C 334.552 210.304,337.773 198.173,338.930 191.337 C 341.082 178.629,341.231 174.877,341.237 133.271 L 341.243 96.863 339.454 95.721 C 338.470 95.093,335.970 93.398,333.898 91.955 C 331.827 90.511,327.250 87.359,323.729 84.949 C 320.207 82.539,314.360 78.530,310.734 76.039 C 303.247 70.895,300.462 68.986,295.071 65.306 C 292.981 63.879,289.761 61.674,287.915 60.405 C 286.068 59.136,283.101 57.102,281.320 55.885 C 273.467 50.517,270.206 48.274,263.842 43.861 C 260.113 41.275,256.808 39.047,256.497 38.910 C 256.186 38.773,255.847 38.552,255.744 38.418 C 255.640 38.284,252.683 36.237,249.172 33.870 C 245.661 31.503,242.525 29.358,242.204 29.103 C 241.882 28.848,235.179 24.240,227.307 18.864 C 219.435 13.487,212.038 8.398,210.868 7.555 C 205.798 3.897,199.647 2.710,194.878 4.468 M204.762 46.499 C 206.182 47.463,209.040 49.381,211.111 50.760 C 213.183 52.140,214.962 53.369,215.066 53.491 C 215.213 53.666,224.827 60.266,238.664 69.693 C 239.519 70.275,242.604 72.399,253.672 80.028 C 257.401 82.597,262.825 86.315,265.725 88.288 C 268.625 90.262,272.778 93.107,274.953 94.610 C 277.128 96.113,280.533 98.449,282.518 99.801 C 284.504 101.153,287.640 103.298,289.486 104.567 C 293.782 107.519,298.443 110.708,302.584 113.528 L 305.856 115.756 305.803 143.471 C 305.741 176.248,305.437 180.627,302.398 192.639 C 300.472 200.249,296.273 210.854,292.797 216.885 C 291.683 218.817,290.772 220.468,290.772 220.553 C 290.772 220.800,284.619 229.847,283.745 230.885 C 262.855 255.708,240.746 268.057,210.923 271.563 C 187.779 274.283,156.377 266.290,140.301 253.587 C 140.094 253.423,138.653 252.363,137.100 251.230 C 135.546 250.098,134.190 249.083,134.087 248.974 C 133.983 248.865,132.712 247.772,131.262 246.544 C 112.626 230.769,99.426 207.261,95.692 183.193 C 94.428 175.046,94.174 168.072,94.168 141.346 L 94.162 115.648 95.198 114.995 C 97.021 113.845,118.825 98.921,119.021 98.689 C 119.124 98.567,120.904 97.343,122.976 95.971 C 125.047 94.599,127.335 93.056,128.060 92.542 C 128.785 92.029,134.548 88.079,140.866 83.764 C 147.185 79.450,152.524 75.781,152.731 75.612 C 152.938 75.442,154.825 74.142,156.925 72.723 C 159.025 71.304,161.228 69.801,161.821 69.384 C 162.415 68.967,168.070 65.102,174.388 60.794 C 180.706 56.486,185.960 52.867,186.064 52.752 C 186.860 51.867,197.909 44.797,198.913 44.530 C 200.639 44.072,201.724 44.437,204.762 46.499 M149.365 149.584 C 137.377 153.631,134.151 166.806,140.450 185.988 C 142.369 191.834,147.692 202.060,149.899 204.143 C 150.009 204.247,150.585 204.983,151.179 205.780 C 167.558 227.741,201.036 235.336,226.978 222.977 C 247.423 213.236,260.599 194.051,262.554 171.177 C 263.760 157.056,256.343 148.208,243.847 148.862 C 234.079 149.373,228.430 155.645,227.294 167.239 C 223.821 202.714,175.151 202.215,172.693 166.679 C 171.786 153.578,160.984 145.662,149.365 149.584 " stroke="none" fill="#0096FF" fill-rule="evenodd"></path></g></svg>